<?xml version="1.0" encoding="utf-8"?>
<!-- Generator: Adobe Illustrator 23.0.1, SVG Export Plug-In . SVG Version: 6.00 Build 0)  -->
<svg version="1.1" id="Layer_1" xmlns="http://www.w3.org/2000/svg" xmlns:xlink="http://www.w3.org/1999/xlink" x="0px" y="0px"
	 viewBox="0 0 3500 3000" style="enable-background:new 0 0 3500 3000;" xml:space="preserve">
<g>
	<path d="M1404.33,256.21c154.61-43.06,317.3-56.04,476.91-39.99c149.16,14.91,295.45,56.61,430.3,121.93
		c168.92,82.23,319.8,201.47,438.28,347.25c168.95,206.28,271.64,466.24,287.15,732.56c7.28,124.88-1.23,244.22-28.75,366.29
		c-17.3,76.74-41.65,151.89-72.68,224.17c-24.23,56.44-52.69,110.85-84.65,163.28c-97.9,160.59-231.62,299.06-388.16,403.26
		c-176.3,117.69-382.17,190.67-593.33,209.77c-231.68,22.01-469.28-20.17-678.89-121.59c-218.41-104.99-405.92-272.97-534.66-478.27
		c-68.9-109.9-121.52-230.16-154.42-355.67c-37.87-144.47-50.12-293.36-37.55-442.02c14.15-167.47,62.09-331.89,139.57-480.99
		c66.18-126.84,153.22-242.92,257.2-341.17C1012.69,419.37,1201.44,312.48,1404.33,256.21z M1610.43,291.74
		c-197.23,22.29-388.51,94.55-551.47,207.8c-191.43,132-343.8,319.92-432.83,534.82c-53.54,127.1-83.46,263.72-91.63,401.27
		c0.92,29.16-4.05,58.29-0.89,87.42c1.77,112.02,19.5,223.98,52.47,331.13c62.31,205.56,181.24,393.35,339.17,538.75
		c188.87,175.44,434.99,288.7,691.52,315.68c72.07,8.2,144.92,9.78,217.24,4.4c208.82-13.9,413.2-84.29,587.32-200.17
		c126.46-84.48,237.16-192.48,324.48-316.98c128.3-182.57,205.18-401.2,217.27-624.11c6.52-89.1,0.63-179.02-13.46-267.27
		c-44.55-280.41-192.92-542.32-408.58-726.57c-202.1-174.84-463.39-280.41-730.53-292.34c-34.32-2.85-68.96-0.38-103.41-1.3
		C1674.83,285.76,1642.5,287.81,1610.43,291.74z"/>
</g>
<path d="M1704.06,350.79c32.2,0.03,64.4,0.06,96.6,0c0,12.16,0,24.32,0,36.44c-5.29,0-10.58,0-15.83,0.03
	c-0.03-6.9-0.03-13.74-0.03-20.61c-15.8,0-31.63,0-47.46,0c0,11.08,0,22.16,0.03,33.25c14.22,0,28.47,0,42.71-0.03
	c-0.03,5.29-0.03,10.58-0.03,15.89c-14.25-0.03-28.47-0.03-42.68,0c-0.03,12.13-0.03,24.25,0,36.38c15.8,0,31.63,0.06,47.46-0.06
	c-0.03-6.84-0.03-13.68,0-20.52c5.26,0,10.54,0,15.83,0c0,12.13,0,24.25,0,36.41c-32.17,0-64.37,0-96.54,0
	c-0.03-5.29-0.06-10.58-0.06-15.83c5.29-0.03,10.54-0.03,15.86,0c-0.82-28.5,1.87-57.18-1.8-85.49c-4.69,0-9.37,0-14.03,0
	C1704.09,361.37,1704.06,356.08,1704.06,350.79z"/>
<path d="M1645.23,357.47c14.22-0.85,28.47-1.87,42.62-3.67c0.51,5.22,1.14,10.39,1.96,15.58c-3.04,0.41-9.09,1.23-12.13,1.65
	c0.92,28.05,5.45,55.92,5.92,83.97c4.46,1.11,11.27-1.74,13.84,3.51c0.32,4.08,0.51,8.2,0.54,12.32c-13.87,1.49-27.8,2.41-41.7,3.77
	c-1.04-5.51-2.6-10.89-4.37-16.18c4.78,0.03,9.56,0.03,14.38,0.03c-3.01-27.42-4.91-55-6.97-82.51c-2.72-4.62-8.9-2.25-13.14-3.23
	C1645.77,367.6,1645.48,362.54,1645.23,357.47z"/>
<g>
	<path d="M1535.83,373.11c19.98-4.05,40.18-6.93,60.41-9.47c10.23-1.42,21.28,2.56,27.71,10.8c5.83,8.42,6.81,19.06,5.48,28.97
		c-2.82,8.55-10.01,14.47-17.22,19.31c8.23,12.63,16.78,25.01,25.58,37.24c4.05-0.73,8.14-1.39,12.22-1.99
		c1.58,5,3.17,10.01,4.81,15.01c-8.8,1.55-17.67,2.72-26.41,4.46c-11.84-15.86-23.15-32.2-33.63-49.01
		c-5.48-0.1-10.92,0.54-16.12,2.25c2.82,11.21,4.08,22.67,5.73,34.1c2.63,5.95,9.91,0.6,14.57,0.95c1.33,5.26,2.25,10.61,2.66,16.02
		c-15.93,2.09-31.82,4.59-47.62,7.38c-1.04-5.22-1.87-10.45-2.41-15.74c5.19-1.01,10.39-2.18,15.58-3.45
		c-3.04-12.73-4.75-25.71-6.68-38.63c-2.56-15.13-4.91-30.27-7.09-45.44c-5.26,0.92-10.51,1.8-15.77,2.69
		C1536.94,383.44,1536.34,378.27,1535.83,373.11z M1571.71,382.93c1.8,10.39,3.7,20.83,4.53,31.38c9.75-2.09,20.55-1.61,29.22-7.12
		c10.26-7.31,5.64-26.06-7.03-27.61C1589.44,379.73,1580.6,381.95,1571.71,382.93z"/>
</g>
<g>
	<path d="M1934.12,364.5c20.14,3.2,40.12,7.19,60.19,10.73c-2.25,5.38-0.44,16.78-9.63,13.17c-1.74-0.41-5.16-1.23-6.9-1.65
		c3.51,30.9,10.07,61.36,14.82,92.08c8.68,0.25,17.16,1.96,25.43,4.53c7.63-27.29,15.36-54.56,23.94-81.56
		c-5.03-1.93-10.23-3.48-15.32-5c1.36-5,2.79-9.97,4.18-14.98c15.29,3.39,30.11,8.64,45.28,12.6c12.22,3.7,26.57,7.6,32.77,20.01
		c4.31,11.46,2.82,25.52-5.26,34.99c-6.33,7.16-16.31,8.45-25.05,10.61c3.51,14.12,5.79,28.59,7.35,43.09
		c4.78,1.52,9.56,2.91,14.41,4.34c-1.46,5.19-2.94,10.35-4.31,15.58c-8.68-2.44-17.29-5-25.87-7.66
		c-1.96-19.79-6.49-39.2-8.71-58.96c-5-1.52-9.97-2.98-14.94-4.46c-3.39,12.32-7,24.6-10.45,36.92c4.56,1.23,9.18,2.47,13.84,3.64
		c-1.39,5.51-2.82,11.08-5.48,16.18c-27.93-11.4-58.01-14.79-87.36-20.61c0.76-5.26,1.61-10.48,2.44-15.7
		c4.65,0.82,9.34,1.65,14.06,2.41c-1.11-8.55-2.15-17.1-3.48-25.62c-13.33-2.56-26.63-5.54-40.18-6.9
		c-3.64,7.57-7.85,14.82-12.19,21.97c4.4,1.04,8.83,1.99,13.3,2.91c-0.82,5.26-1.68,10.48-2.56,15.67
		c-14.38-2.34-28.72-4.97-43.03-7.54c-5.57-3.77-0.19-11.53-0.63-16.88c4.62,1.11,9.31,2.15,13.96,3.2
		c15.29-26.95,31.44-53.42,46.07-80.74c-4.4-0.7-8.77-1.36-13.14-2.03C1932.41,374.06,1933.27,369.25,1934.12,364.5z
		 M1937.83,427.83c10.26,1.68,20.52,3.55,30.74,5.6c-2.37-16.94-5.1-33.82-6.55-50.85C1954.8,398.13,1945.74,412.66,1937.83,427.83z
		 M2059.47,406.68c-2.6,10.16-5.73,20.17-8.01,30.43c8.74,1.84,17.22,5.41,26.25,5.64c13.58,0.54,19.79-20.87,7.95-27.71
		C2077.46,410.79,2068.28,409.15,2059.47,406.68z"/>
</g>
<path d="M1426.4,401.74c30.52-9.44,61.93-15.86,92.55-24.98c4.27,11.34,6.43,23.34,10.07,34.89c-5,1.49-10.01,2.98-14.94,4.5
	c-1.99-6.59-3.89-13.24-5.67-19.88c-14.98,4.4-30.3,7.57-45.25,12.06c2.69,10.51,5.29,21.06,7.88,31.6
	c13.43-2.22,26.22-7,39.52-9.82c4.37,3.01,4.05,9.69,6.33,14.28c-13.55,4.59-27.52,7.66-41.29,11.53
	c2.56,11.87,6.02,23.56,8.87,35.37c15.23-3.74,30.27-8.36,45.59-11.81c-1.68-6.74-3.48-13.46-5.38-20.14
	c5.22-1.52,10.48-2.98,15.74-4.4c2.6,12.13,5.73,24.13,8.83,36.13c-31.09,8.11-62.28,15.8-93.18,24.48
	c-1.2-5.32-2.5-10.61-3.86-15.89c4.84-1.17,9.66-2.37,14.53-3.48c-7.41-27.55-14.69-55.13-21.4-82.83
	c-4.91,0.92-9.82,1.84-14.69,2.82C1429.19,411.36,1427.8,406.55,1426.4,401.74z"/>
<path d="M1387.14,414.5c5.03-1.74,10.1-3.45,15.23-5.07c4.53,12.13,8.8,24.35,13.96,36.19c-4.46,1.84-8.9,3.7-13.3,5.64
	c-12.41-8.04-27.55-15.64-42.56-10.07c-18.62,4.31-31.16,23.84-28.4,42.62c2.41,16.4,11.75,34.29,28.4,39.83
	c24.57,10.83,57.5-10.48,54.37-38.06c-6.65,2.6-13.36,4.97-20.04,7.5c-1.93-5-3.93-10.01-6.05-14.91
	c13.65-5.07,27.36-10.01,40.72-15.83c6.08,14.5,8.45,31.66,1.61,46.32c-11.3,24.54-40.28,36.51-66.08,35.37
	c-44.42-3.04-69.56-64.56-41.83-98.79c11.56-15.07,31.09-21.18,49.33-22.92c6.17,1.11,12.35,2.03,18.55,3.1
	C1390.09,422.7,1388.12,417.22,1387.14,414.5z"/>
<path d="M2135.75,414.02c29.83,10.39,59.15,22.29,88.34,34.32c-5.32,14.15-11.21,28.12-16.65,42.24c-5-2.12-10.01-4.18-14.98-6.21
	c3.86-8.8,7.31-17.83,11.21-26.63c-6.71-3.2-13.55-5.95-20.45-8.61c-10.35,26.57-20.83,53.13-31.85,79.44
	c4.75,1.77,9.47,3.64,14.25,5.45c-2.09,5-4.08,10.07-6.11,15.1c-15.01-6.08-30.08-11.94-45.21-17.67c1.9-4.84,3.8-9.69,5.76-14.53
	c4.75,1.49,9.47,3.17,14.15,5.03c10.26-26.63,20.68-53.19,31.31-79.7c-6.78-2.66-13.49-5.41-20.2-8.17
	c-3.64,9.37-7.25,18.71-11.21,27.93c-4.78-2.12-9.63-4.18-14.41-6.21C2125.21,441.95,2130.56,428.02,2135.75,414.02z"/>
<path d="M2235.49,452.68c12.76,6.71,26.03,12.51,39.1,18.62c-2.09,5.03-4.21,10.1-6.36,15.13c-3.93-1.96-7.79-3.89-11.65-5.83
	c-11.59,26.12-24.86,51.48-36.82,77.48c3.55,1.71,7.12,3.42,10.7,5.16c-2.09,5.03-4.34,10.01-6.55,14.98
	c-12.86-6.78-26.31-12.25-39.33-18.68c2.06-5.03,4.27-10.04,6.52-15.01c2.79,1.36,8.39,4.08,11.21,5.45
	c12.82-25.52,24.89-51.42,37.3-77.16c-3.58-1.71-7.16-3.45-10.67-5.16C2230.99,462.62,2233.21,457.65,2235.49,452.68z"/>
<g>
	<path d="M1235.51,479.03c13.84-7.92,28.34-14.53,42.05-22.7c2.56,4.62,5.07,9.31,7.63,14c-4.78,2.91-9.5,5.86-14.22,8.87
		c16.05,30.05,32.39,59.97,47.68,90.43c-5.22,3.2-10.61,6.14-16.02,9.06c-31.16-19.63-61.39-40.66-92.42-60.44
		c11.94,23.43,24.54,46.54,36.73,69.85c5.07-2.53,10.13-5.07,15.17-7.63c2.22,5.03,4.53,10.01,6.87,14.98
		c-27.36,12.25-52.59,28.37-76.88,45.75c-3.1-4.56-6.21-9.09-9.37-13.62c3.74-2.44,7.44-4.94,11.15-7.44
		c-6.33-5.57-12.57-11.37-19.76-15.8c-11.72,6.71-22.61,14.79-33.78,22.32c2.63,8.33,4.94,16.72,8.14,24.86
		c2.6-1.96,7.79-5.86,10.39-7.82c3.13,4.53,6.21,9.06,9.34,13.62c-36.19,22.86-66.81,53.1-100.34,79.54
		c-3.64-4.21-7.16-8.45-10.61-12.76c3.67-2.82,7.38-5.64,11.11-8.39c-16.78-22.96-35.91-44.11-53.95-66.05
		c-4.12,3.04-8.3,5.98-12.51,8.9c-2.98-4.15-6.11-8.17-8.9-12.44c12.38-9.85,23.75-21.31,37.01-29.79
		c3.93,3.55,6.84,8.04,9.91,12.32c-3.64,2.63-7.28,5.29-10.92,7.95c18.62,21.72,36.06,44.45,55.16,65.8
		c8.11-7,16.43-13.77,24.7-20.58c-7.35-10.83-16.56-20.17-24.48-30.59c4.5-3.99,9.09-7.82,13.84-11.49
		c7.66,9.85,15.64,19.5,23.91,28.88c3.39-1.65,6.71-3.36,9.97-5.16c-7.06-30.33-15.58-60.29-23.43-90.43
		c-3.74,2.63-7.47,5.29-11.18,7.95c-2.72-4.15-5.54-8.23-8.33-12.32c16.27-11.81,32.9-23.18,49.81-34.04
		c2.75,3.96,5.57,7.92,8.42,11.84c-3.96,2.91-7.92,5.83-11.87,8.77c25.46,17,49.84,35.65,74.57,53.76
		c7.25-5.32,15.17-9.56,23.46-13.05c-13.52-25.33-27.58-50.44-40.12-76.24c-4.91,2.6-9.82,5.19-14.69,7.76
		c-2.91-4.69-5.35-9.63-7.47-14.69c11.97-5.67,23.56-12.1,35.11-18.55c28.02,18.17,56.08,36.29,83.65,55.16
		c-10.04-21.82-22.16-42.59-33.34-63.83c-4.69,2.75-9.34,5.57-14,8.39C1240.32,488.91,1237.91,483.97,1235.51,479.03z
		 M1122.15,563.91c5.41,15.32,8.93,31.25,14.15,46.64c8.49-5.54,17-11.05,25.05-17.22C1147.96,583.99,1135.96,572.72,1122.15,563.91
		z"/>
</g>
<path d="M2271.36,533.96c-9.34-20.26,8.11-45.78,30.21-45.09c13.87,1.49,28.69,9.02,33.78,22.8c6.43-6.36,12.54,0.25,18.49,3.48
	c-5.86,10.89-12.1,21.56-18.3,32.26c-4.46-2.72-8.9-5.51-13.27-8.33c12.19-15.74-9.09-35.37-25.58-33.69
	c-6.14,4.75-13.93,12.1-7.85,20.14c10.8,13.49,27.04,23.68,32.11,41.04c5.32,22.29-14.47,46.51-37.74,43.38
	c-15.8-1.58-28.34-12.86-35.15-26.69c-2.47,10.16-12.16,0.85-17.92-0.82c7.5-12.73,14.12-26,22.13-38.44
	c4.27,2.22,8.61,4.46,12.95,6.68c-1.77,4.34-3.64,8.61-5.45,12.92c1.52,11.34,6.05,24.06,18.02,27.93
	c12.57,6.74,28.75-7.47,23.94-20.68C2293.78,556.76,2278.8,548.3,2271.36,533.96z"/>
<g>
	<path d="M2383.23,553.12c2.69-3.93,5.38-7.85,8.04-11.78c17.22,10.64,33.28,23.02,50.06,34.35c-2.69,3.83-5.35,7.66-8.01,11.46
		c-4.34-2.25-8.58-4.53-12.86-6.74c-6.65,29.41-15.2,58.42-23.46,87.42c7.16,5.86,14.47,11.59,21.4,17.76
		c18.97-21.06,37.81-42.21,56.58-63.42c-3.93-3.83-7.82-7.66-11.68-11.49c3.45-3.86,6.9-7.76,10.23-11.72
		c10.32,8.83,20.71,17.57,30.52,26.91c-7.06,32.14-15.2,64.09-21.4,96.41c16.37-16.65,31.09-34.83,46.92-52.02
		c-4.02-3.7-8.07-7.31-12.29-10.8c3.83-3.93,7.73-7.79,11.78-11.53c11.81,10.51,24,20.64,35.18,31.85
		c-3.36,3.96-6.59,7.98-9.78,12.03c-4.46-3.67-8.93-7.28-13.39-10.92c-22.51,25.81-45.85,50.88-68.04,76.94
		c-4.69-4.53-9.53-8.9-14.44-13.17c8.11-36,17.22-71.84,24.13-108.1c-16.97,20.42-34.89,40.09-52.75,59.72
		c3.99,3.48,8.07,6.9,12.35,10.07c-3.23,4.05-6.27,8.2-9.72,12.06c-8.71-4.43-15.32-12.44-22.86-18.65
		c-14.88-14.31-32.55-25.14-49.33-36.98c3.23-4.53,6.52-9.06,9.78-13.58c3.64,2.91,7.31,5.86,10.92,8.83
		c2.41-8.42,5.22-16.72,8.14-24.98c-11.37-7.85-22.32-16.31-34.29-23.24c-6.36,5.35-13.01,10.32-19.57,15.36
		c3.55,2.53,7.16,5.07,10.8,7.57c-2.94,4.46-5.83,8.93-8.77,13.39c-13.24-8.52-25.84-17.95-38.76-26.95
		c2.91-4.21,5.89-8.42,8.93-12.57c3.89,2.12,7.54,4.62,10.99,7.44c26-16.59,50.31-35.65,76.02-52.75
		C2390.8,558.56,2386.97,555.84,2383.23,553.12z M2368.51,600.26c8.68,5.38,16.94,11.4,25.27,17.29
		c5.67-15.67,9.5-31.95,15.58-47.49C2395.64,580,2382.34,590.51,2368.51,600.26z"/>
</g>
<g>
	<path d="M1266.44,677.21c127.7-75.58,273.47-120.1,421.53-129.44c31.47-1.08,63.07-4.18,94.58-1.08
		c221.58,6.11,439.26,94.58,603.62,243.14c163.48,145.87,274.49,349.56,306.4,566.51c5.54,33.56,7.63,67.6,10.13,101.42
		c4.75,124.37-13.33,249.88-56.17,366.91c-65.73,182.32-188.9,343.26-347.41,454.71c-145.18,103.44-320.18,163.82-498.09,173.23
		c-42.24,1.2-84.57,1.27-126.75-1.3c-112.66-9.34-223.79-37.9-326.26-85.84c-197.77-91.28-362.07-252.67-456.87-448.79
		c-44.71-90.56-73.52-188.62-87.48-288.55c-6.46-55.66-10.92-111.96-7.09-167.88c4.59-144.92,45.02-288.29,114.15-415.58
		C993.38,893.18,1117.44,764.37,1266.44,677.21z M1633.1,574.49c-180.26,22.67-353.26,99.52-490.65,218.44
		c-27.71,22.86-52.18,49.14-77.54,74.5c-56.58,61.39-105.06,130.29-143.72,204.32c-62.91,121.36-98.88,256.76-103.73,393.38
		c0.28,36.41-0.89,72.83,2.03,109.14c1.55,10.51,2.12,21.15,3.2,31.73c6.71,54.81,17.45,109.14,33.53,161.99
		c64.31,214.93,209.45,404.18,399.9,522.63c110.95,69.82,237,115.63,366.91,133.02c14.88,2.56,29.98,3.45,44.96,5.45
		c48.44,3.55,97.21,5.41,145.62,0.85c221.29-13.96,435.68-112.09,592.1-269.01c155.62-152.84,254.35-362.23,272.52-579.69
		c2.31-19.98,2.75-40.05,2.98-60.13c2.37-14.44,1.49-29.29,0.22-43.79c-3.96-208.56-82.17-414.56-216.45-574.05
		c-145.71-175.95-358.3-295.67-584.91-326.54c-18.87-3.01-37.9-4.97-56.93-6.36C1759.91,565.15,1696.11,566.92,1633.1,574.49z"/>
</g>
<path d="M953.01,684.49c10.99-10.42,21.5-21.34,32.3-31.95c3.7,3.64,7.44,7.28,11.21,10.92c-3.42,3.42-6.84,6.87-10.23,10.32
	c17.16,17.45,34.77,34.48,51.8,52.02c11.72,12.7,8.68,33.25-2.34,45.4c-9.02,9.75-20.23,20.23-34.48,19.88
	c-14.31,1.23-24.86-10.58-34.45-19.47c-13.05-13.14-26.15-26.25-39.29-39.33c-3.17,3.23-6.3,6.46-9.44,9.69
	c-3.67-3.77-7.35-7.5-10.99-11.21c10.64-10.83,21.53-21.34,31.98-32.33c3.89,3.64,7.76,7.38,11.62,11.11
	c-3.29,3.13-6.52,6.27-9.78,9.44c17.89,16.65,33.66,35.68,52.88,50.85c11.84,10.54,27.04-2.85,32.52-13.96
	c4.31-6.65,0.32-14.53-4.59-19.54c-16.34-16.37-32.74-32.68-49.08-49.01c-2.88,2.91-5.76,5.86-8.61,8.77
	C960.32,692.24,956.65,688.41,953.01,684.49z"/>
<g>
	<path d="M2577.73,714.44c3.07-3.51,6.78-6.36,10.39-9.34c12.44,15.8,27.26,29.57,39.93,45.25c-3.45,3.07-6.84,6.17-10.16,9.37
		c-3.58-3.13-7.16-6.27-10.73-9.37c-13.9,27.23-28.4,54.14-42.84,81.09c5.92,5.92,10.48,12.98,14.28,20.45
		c23.91-16.05,46.67-33.75,69.79-50.91c-2.88-3.86-5.73-7.69-8.55-11.49c4.21-3.39,8.42-6.78,12.6-10.26
		c9.63,13.17,19.63,26.06,29.16,39.26c-4.31,3.29-8.58,6.59-12.76,9.97c-2.91-3.89-5.86-7.73-8.71-11.62
		c-22.99,17.16-46.39,33.82-69.25,51.17c7.44,8.3,13.39,17.76,20.07,26.63c10.83-7.69,21.28-15.93,32.04-23.72
		c3.45,5,6.97,9.94,10.48,14.94c-15.61,10.23-29.73,22.54-45.5,32.55c-16.4-24.29-35.4-46.73-51.33-71.37
		c-9.02-9.78-17.67-19.92-26.79-29.6c3.8-3.64,7.57-7.31,11.4-10.92c3.51,3.32,6.9,6.81,10.29,10.32
		c4.12-7.57,8.55-15.01,12.95-22.45c-9.53-9.47-17.45-20.42-27.45-29.41c-7.76,3.1-15.39,6.49-23.08,9.75
		c2.85,3.74,5.7,7.54,8.64,11.3c-3.99,3.32-7.98,6.68-12.03,9.94c-10.35-11.49-21.15-22.58-30.78-34.67
		c3.7-3.58,7.41-7.12,11.15-10.7c3.45,3.45,6.93,6.87,10.45,10.32c28.12-12.1,56.39-23.84,84.79-35.34
		C2583.31,721.98,2578.21,719.35,2577.73,714.44z M2552.4,757.57c6.24,8.04,12.85,15.83,20.58,22.51
		c7.88-14.34,16.69-28.18,24.73-42.46C2582.64,744.33,2567.63,751.26,2552.4,757.57z"/>
</g>
<g>
	<path d="M882.43,770.48c36.16-13.05,79.66,16.91,80.84,55.19c2.63,33.97-29.13,68.11-63.93,63.42c-26-2.5-50.66-21.85-56.55-47.78
		C835.26,812.31,854.38,779.79,882.43,770.48z M885.69,789.04c-15.48,4.56-24.82,20.04-26.98,35.3
		c1.96,25.36,25.33,47.34,51.01,45.88c18.02,0.25,33.02-16.21,34.99-33.4C947.53,806.96,914.63,778.84,885.69,789.04z"/>
</g>
<path d="M1577.25,848.03c17.72-21.91,39.18-20.79,61.53-5.29c37.01,25.66,67.79,69.76,86.08,110.25
	c11.53,25.52,25.43,51.14,27.07,79.7c8.77-3.58,18.14-6.71,27.74-5.64c15.32,1.84,30.81,1.17,46.13,3.36
	c32.17,4.4,64.34,13.27,92.01,30.65c16.34,9.56,30.93,21.82,47.46,31.09c47.68-29.48,95.3-59.27,145.55-84.25
	c24.1-11.98,52.52-21.33,79.57-15c24.34,5.7,26.77,31.73,27.33,53.14c0.41,15.55,1.61,60.85-16,68.02
	c-14.22,5.79-29.48,12.1-38.6,25.17c-5.22,9.88-7.54,20.96-10.73,31.63c32.17,0.09,64.34-0.03,96.51,0.03
	c7.41,0.32,16.18,1.14,21.02,7.6c10.77,11.56,2.79,34.77-14.34,33.56c-291.01,0.03-582.03-0.09-873.08,0.06
	c-4.27,5.6-9.12,12.25-16.84,8.01c-1.61,13.05-5.35,27.61-16.75,35.53c-5.89,4.5-13.52,4.94-19.95,8.14
	c-5.45,4.53-10.01,10.45-16.88,12.98c-30.58,11.27-73.23-9.14-85.48-39.17c-2.94-7.22-3.32-15.86,0.72-22.53
	c-12.96-3.14-31.01,1.52-42.2-6.92c-2.85-2.15-4.53-4.92-5.52-7.98c-4.28-13.24,4.96-26.95,18.74-28.92
	c6.91-0.99,14.36-0.54,21.01-0.43c4.72-10.64,13.05-18.65,21.85-25.93c19.74-24.23,51.04-47.41,80.99-57.17
	c37.15-12.11,81.34,24.69,101.9,53.24c6.59,8.58,8.42,19.44,9.72,29.92c58.39-0.13,116.8,0.22,175.16-0.16
	c1.55-0.63,4.62-1.84,6.17-2.44c-8.49-24.25-35.62-31.57-51.1-49.84c-11.17-15.87-9.09-35.98-7.6-54.2
	c2.19-26.74,1.78-53.65,3.64-80.31c1.23-17.52-7.55-34.49-8.2-52.11C1550.81,902.37,1558.47,871.25,1577.25,848.03z"/>
<path d="M2697.83,865.76c4.5-2.53,9.02-5.1,13.52-7.73c17.29,27.36,33.78,55.28,50.41,83.08c-10.58,5.92-20.64,12.67-31.28,18.46
	c-2.72-4.46-5.35-8.99-7.85-13.52c5.64-3.61,11.43-7,17.26-10.35c-8.23-13.46-16.65-26.76-24.41-40.43
	c-9.59,5.6-18.87,11.81-28.69,17c7.6,12.03,14.98,24.22,21.88,36.67c-4.12,2.79-8.26,5.51-12.32,8.36
	c-9.15-11.08-15.26-24.19-23.15-36.1c-10.39,6.27-20.68,12.6-30.97,19c8.26,13.3,16.08,26.88,24.35,40.18
	c6.05-3.61,12.06-7.38,17.95-11.3c2.66,4.78,5.41,9.56,8.07,14.41c-10.64,6.02-20.8,12.89-31.54,18.74
	c-16.59-27.74-34.29-54.81-49.84-83.15c4.46-2.6,8.99-5.22,13.55-7.79c2.37,4.12,4.75,8.26,7.09,12.48
	c24.79-14.28,48.82-29.76,73.24-44.68C2702.65,874.62,2700.18,870.22,2697.83,865.76z"/>
<g>
	<path d="M788.52,886.09c10.01-15.48,34.99-15.13,46.48-1.58c5.19,4.78,6.65,11.84,8.49,18.36c14.44-9.47,36.19-4.08,44.39,11.24
		c6.9,11.34,4.59,25.81-1.77,36.82c-8.83,15.36-18.59,30.14-28.31,44.93c-4.62-2.66-9.18-5.32-13.77-8.01
		c2.53-4.12,5.03-8.23,7.47-12.38c-24.22-14.98-48.32-30.24-72.26-45.69c-2.53,3.89-5.03,7.82-7.57,11.75
		c-4.56-2.85-9.12-5.73-13.58-8.71C768.1,917.15,777.44,901.03,788.52,886.09z M789.19,913.47c9.02,6.17,18.27,12.1,27.83,17.41
		c4.15-8.07,11.91-15.83,9.85-25.62c-0.89-5.92-6.97-8.45-10.99-12C802.2,891.09,795.52,903.94,789.19,913.47z M850.58,916.07
		c-10.01,4.31-14.09,15.36-20.42,23.46c10.51,6.84,21.15,13.49,31.85,20.04c5.48-9.91,14.5-19.66,12.35-31.85
		C870.05,919.49,860.05,912.62,850.58,916.07z"/>
</g>
<g>
	<path d="M980.59,1368.79c48.51,0.51,97.14-1.87,145.46,3.26c31.31,4.75,51.42,39.17,43.41,69.15
		c-3.1,14.31-14.28,26.19-27.83,31.31c3.52-1.33,16.31,8.77,19.04,10.94c5.95,4.74,10.67,10.57,13.79,17.53
		c16.12,36.07-7.11,78.85-45.93,85.13c-48.89,7.92-98.66,2.91-147.96,4.31c0.03-13.2,0.03-26.41,0.03-39.58
		c8.96-0.03,17.92-0.03,26.88,0c0.06-47.49,0.03-94.99,0-142.48c-8.96-0.03-17.92,0-26.88,0.03
		C980.59,1395.2,980.59,1381.99,980.59,1368.79z M1066.11,1408.37c-0.03,15.83-0.03,31.66-0.03,47.49c12.03-0.25,25.01,1.68,36-4.43
		c5.07-2.74,8.15-7.4,9.52-12.69c3.7-14.23-6.55-28.24-21.14-30.05C1082.46,1407.7,1073.94,1408.55,1066.11,1408.37z
		 M1066.08,1493.7v57.12c14.66-0.63,30.74,2.82,43.98-5.35c3.9-2.72,6.06-6.72,7.41-11.07c2.4-7.72,1.8-17.03-0.94-24.61
		C1109.94,1491.61,1081.53,1494.29,1066.08,1493.7z"/>
</g>
<g>
	<path d="M1306.31,1367.84c36.95-5.45,78.02-0.79,107.97,23.34c49.65,37.84,55.51,119.37,12.44,164.33
		c-17.26,19.98-42.46,31.88-68.39,35.4c-37.58,4.05-79.98,1.04-109.49-25.39c-42.11-35.72-51.14-103.38-20.33-149.07
		C1245.45,1389.56,1275.12,1372.18,1306.31,1367.84z M1297,1420.84c-21.53,17.89-25.96,48.63-22.7,74.98
		c3.39,20.14,14.44,40.28,33.47,49.3c18.52,9.91,42.4,7.35,58.89-5.45c14.15-9.63,21.47-26.28,24.54-42.59
		c3.42-24.1,0.79-51.1-15.93-70.07C1356.78,1404.06,1318.91,1401.31,1297,1420.84z"/>
</g>
<g>
	<path d="M1517.63,1399.22c21.15-22.35,52.37-31.79,82.39-33.31c31.31-1.3,64.78,4.94,89.61,25.33
		c24.54,18.71,38.57,48.73,41.19,79.13c2.12,32.68-8.87,67.16-33.37,89.61c-16.69,17.86-40.43,27.61-64.28,31.16
		c-29.38,2.31-60.48,2.25-87.52-11.15c-33.72-16.59-56.11-52.21-59.53-89.26C1482.48,1457.54,1493.94,1422.93,1517.63,1399.22z
		 M1591.62,1410.08c-19.44,5.92-34.73,23.02-39.33,42.71c-5.98,22.77-5.35,48.51,6.78,69.25c9.82,17.64,29.7,30.24,50.22,28.97
		c14.22,0.41,27.83-6.43,38.28-15.7c14.76-15.01,20.83-36.67,20.23-57.31c0.22-23.18-8.83-48.16-28.78-61.33
		C1625.31,1407.16,1607.39,1406.31,1591.62,1410.08z"/>
</g>
<path d="M1811.96,1383.7c29.98-17.92,67.22-22.04,100.91-13.81c12.35,2.69,23.72,8.71,33.72,16.37c-0.22-5.83-0.35-11.68-0.41-17.48
	c12.7-0.03,25.39,0,38.12,0c0.03,26.88-0.03,53.8,0,80.71c-12.67,0.03-25.33,0.03-38,0.03c-9.34-34.96-53.83-53.04-85.65-37.2
	c-20.93,9.75-34.16,31.54-35.75,54.27c-1.65,23.27,1.93,50.19,20.39,66.52c11.43,12.44,28.75,18.81,45.53,17.86
	c21.12,0.44,41.16-14.38,46.86-34.77c-12.44-0.32-24.89-0.22-37.33-0.16c0-12.7,0.03-25.36,0.03-38.03
	c34.32,0,68.61,0.03,102.94-0.03c1.42,27.33-4.34,56.33-23.02,77.26c-24.22,25.81-60.6,38.28-95.56,36.82
	c-32.9,1.2-68.61-7.47-91.79-32.2c-41.38-44.15-42.59-119.56,1.46-162.46C1799.75,1392.22,1805.63,1387.6,1811.96,1383.7z"/>
<path d="M2015.94,1368.79c37.46-0.03,74.91,0.03,112.37-0.03c0.09,13.2,0.03,26.41,0.09,39.61c-6.97,0-13.9,0-20.8,0.09
	c9.44,16.62,19.88,32.71,29.16,49.43c11.84-15.48,20.64-33.09,31.38-49.39c-6.97-0.13-13.87-0.13-20.8-0.13
	c0.06-13.24-0.06-26.47,0.16-39.67c32.68,0.19,65.32,0.06,98,0.06c0.03,13.2,0.03,26.41,0.03,39.61c-9.4-0.03-18.78-0.03-28.15,0.06
	c-16.84,25.46-33.09,51.29-50.41,76.47c-2.31,3.74-5.7,7.47-5.29,12.22c-0.28,17.89,0.06,35.81-0.06,53.73
	c10.01-0.03,20.04-0.03,30.11,0c-0.06,13.2-0.03,26.41-0.06,39.61c-40.09-0.06-80.17-0.03-120.29,0c0-13.24,0-26.41-0.03-39.61
	c10.54-0.03,21.12-0.03,31.69,0c0-18.78,0-37.55,0-56.3c-19.98-28.72-39.52-57.72-59.75-86.22c-9.12,0.03-18.24,0-27.33,0.03
	C2015.94,1395.16,2015.97,1381.99,2015.94,1368.79z"/>
<path d="M2274.05,1368.76c17.92,0.03,35.84,0.03,53.76,0c-1.01,29.54,3.42,60.03-5.64,88.72c-7.95,18.68-29.48,24.95-48.16,24.51
	c0-8.45,0-16.94,0-25.36c6.33-1.8,13.8-2.63,18.02-8.39c6.17-6.43,6.4-15.74,7.73-24c-8.58-0.03-17.19-0.03-25.77-0.03
	C2274.05,1405.71,2273.99,1387.25,2274.05,1368.76z"/>
<path d="M2375.31,1401.64c5.22-12.2,14.39-22.43,27.96-28.65c20.83-9.55,47.86-7.89,63.69,10.09c0.64,0.73,1.26,1.47,1.85,2.24
	c-0.06-5.54-0.13-11.05-0.09-16.53c13.2-0.03,26.41-0.03,39.64,0c-0.06,22.7-0.06,45.37,0,68.08c-13.11,0-26.22,0.16-39.29-0.22
	c-1.61-14.88-12.25-29.19-27.71-31.19c-10.92-1.04-26.12,6.08-23.4,19.28c3.07,13.62,17.67,18.36,28.81,23.62
	c17.38,8.42,35.49,15.99,50.85,27.9c20.64,18.36,24.22,48.92,17.89,74.5c-11.72,43.31-76.09,56.33-105.44,23.46
	c0.03,5.38,0.09,10.8,0.16,16.21c-12.7,0-25.39,0-38.06,0c0-25.33,0-50.66,0-75.99c12.44-0.03,24.89,0.09,37.36-0.22
	c2.53,14.79,6.9,32.2,23.3,37.11c12.57,6.49,26.25-1.23,32.9-12.35c0.28-8.07,1.3-17.26-5.38-23.21
	c-14.47-14.12-34.67-19.66-51.48-30.3c-17.19-9.5-34.83-23.37-37.93-44.07C2368.86,1427.52,2370.18,1413.62,2375.31,1401.64z"/>
<path d="M1794.33,1663.22c13.71,0.03,27.45,0.03,41.16,0c-0.06,30.74,0.13,61.52-0.09,92.3c11.87-9.72,24-19.16,35.91-28.85
	c-5.1-0.06-10.2-0.09-15.23-0.13c-0.03-5.83,0-11.59,0-17.38c19.54,0,39.07-0.03,58.61,0.03c-0.03,5.79-0.03,11.59-0.03,17.41
	c-4.94-0.03-9.91-0.1-14.79-0.1c-13.33,10.48-26.06,21.66-39.23,32.3c11.87,12.03,23.84,23.94,35.81,35.87
	c6.05-0.03,12.13-0.03,18.21-0.03c0,6.3,0,12.63,0.03,18.97c-9.75,0.03-19.54,0.03-29.26,0.03c-16.65-16.62-33.21-33.31-49.9-49.84
	c-0.03,10.23-0.03,20.49-0.06,30.74c5.79,0.03,11.62,0.06,17.45,0.13c-0.03,6.3-0.03,12.63,0,18.97
	c-19.54-0.03-39.07,0.03-58.61-0.03c0-6.33,0-12.63,0-18.9c6.33-0.06,12.67-0.13,19.03-0.13c-0.03-37.43-0.03-74.88,0-112.31
	c-6.33-0.03-12.7-0.06-19.03-0.03C1794.3,1675.89,1794.3,1669.56,1794.33,1663.22z"/>
<path d="M2055.45,1692.32c7.12-6.71,14.72-12.86,22.26-19.09c0.03,11.97-0.03,23.94,0,35.94c6.3-0.03,12.63-0.03,19,0
	c0,6.33,0,12.67,0,19c-6.33,0-12.67,0-18.97,0c0.16,20.83-0.51,41.67,0.22,62.5c3.7,7.38,12.54,2.63,18.78,2.41
	c-0.03,6.84-0.03,13.74,0,20.64c-10.77,1.36-23.11,4.24-32.8-2.18c-6.49-4.43-8.68-12.63-8.39-20.07c-0.06-21.09,0.03-42.21,0-63.29
	c-4.78-0.03-9.53-0.03-14.25,0c-0.03-6.36-0.03-12.7,0-19c4.75-0.03,9.5-0.03,14.28,0
	C2055.52,1703.53,2055.48,1697.89,2055.45,1692.32z"/>
<g>
	<path d="M1596.81,1730.73c8.2-16.34,25.87-25.43,43.85-24.86c17.51-1.42,40.37,5.83,42.56,26.19c0.85,20.83-0.09,41.76,0.38,62.66
		c5.76-0.06,11.53-0.06,17.32-0.09c-0.03,6.33,0,12.67,0,19.03c-12.16-0.03-24.32,0-36.44,0.03c0-3.93,0.06-7.76,0.13-11.59
		c-15.83,17.13-47.3,19-62.6,0.28c-8.23-12.79-8.83-32.55,3.32-43.16c14.41-15.32,38.82-12.95,56.27-4.4
		c-0.79-7.28,1.3-15.45-2.6-22.01c-10.2-12.35-32.61-10.39-40.4,3.64C1611.06,1735.57,1603.65,1733.9,1596.81,1730.73z
		 M1621.1,1793.07c12.35,10.23,30.49,3.67,40.4-6.93c-0.03-2.85-0.13-8.55-0.16-11.4c-8.64-5.6-18.55-10.42-29.16-8.8
		C1619.71,1767.11,1611.66,1783.29,1621.1,1793.07z"/>
</g>
<path d="M1762.25,1711c9.4-4.84,20.3-3.23,30.49-3.48c0,7.41-0.03,14.79-0.03,22.2c-12.98-0.09-30.33-1.68-37.46,11.91
	c-7.88,16.4-4.56,35.4-5.22,53.04c7.38-0.03,14.79,0,22.16,0.03c-0.03,6.33-0.03,12.67-0.03,19c-21.66-0.09-43.28-0.06-64.91-0.03
	c-0.03-6.33-0.03-12.7,0-19c6.84-0.03,13.68-0.03,20.55,0c0.03-22.16,0.03-44.33,0.03-66.49c-6.87-0.03-13.74,0-20.58,0
	c-0.03-6.33-0.03-12.67,0-19c13.2,0,26.41-0.03,39.61,0.03c-0.03,5.48-0.09,10.99-0.13,16.53
	C1751.42,1720.38,1755.64,1714.17,1762.25,1711z"/>
<g>
	<path d="M1958.98,1707.23c20.64-5.16,43.54,2.88,57.28,18.97c9.34,11.68,11.87,26.98,12.79,41.51c-29.29,0.06-58.58,0-87.83,0.03
		c2.47,7.92,5.07,16.34,11.84,21.72c16.43,14.94,44.9,9.12,56.36-9.25c6.71,3.13,13.52,6.08,20.3,9.21
		c-20.26,31.69-70.67,37.58-97.43,11.05c-15.1-13.52-16.88-35.72-13.36-54.46C1923.48,1726.77,1940.23,1712.21,1958.98,1707.23z
		 M1942.29,1750.17c21.12,0.32,42.24,0.13,63.39,0.13c-4.56-14.85-17.79-25.68-33.34-26.95
		C1957.42,1724.55,1945.49,1735.67,1942.29,1750.17z"/>
</g>
<path d="M1403.29,1709.17c12.67,0,25.36,0,38.03,0c0,3.01-0.06,9.02-0.09,12.06c11.65-9.18,26.19-15.61,41.29-13.68
	c9.12,0.16,15.23,7.69,20.2,14.38c11.11-7.09,22.86-15.7,36.79-14.53c13.65-1.96,27.77,9.21,27.9,23.24
	c1.27,21.28,0.19,42.65,0.54,63.99c5.79,0,11.62,0.03,17.45,0.06c-0.03,6.3-0.03,12.6,0,18.93c-13.2,0.03-26.41,0-39.61,0.03
	c-0.06-24.38,0.06-48.73,0-73.11c0.51-4.21-1.84-7.79-3.51-11.37c-2.03-0.66-6.11-1.99-8.14-2.69
	c-11.11,2.12-21.44,7.03-29.64,14.85c0.25,17.76,0.06,35.53,0.13,53.32c6.33-0.03,12.67,0,19,0c0,6.33,0,12.63,0,19
	c-13.74-0.03-27.45-0.03-41.16,0c0.06-26.38-0.19-52.72,0.16-79.06c-3.01-3.1-5.57-7.28-10.13-8.07
	c-11.72,1.33-21.94,7.76-31.28,14.57c0.19,17.83,0.06,35.68,0.09,53.57c6.33-0.03,12.67,0,19,0c0,6.33,0,12.63,0,19
	c-19.54,0-39.07,0.03-58.61-0.03c0-6.33,0-12.63,0-18.9c6.33-0.06,12.67-0.13,19.03-0.13c-0.03-22.13,0-44.26,0-66.4
	c-5.83-0.03-11.62-0.03-17.41-0.03C1403.29,1721.83,1403.29,1715.5,1403.29,1709.17z"/>
<path d="M1178.39,1962.69c5.22-7.19,12.06-14.56,21.97-12.89c337.84,0,675.72,0,1013.57,0c14.88,0.28,29.83-0.7,44.68,0.47
	c10.23,1.17,14.91,11.43,17.16,20.23c-1.8,4.88-3.61,9.75-5.48,14.63c-10.86,8.17-24.82,5.51-37.46,5.83
	c-344.11,0-688.2-0.03-1032.31,0c-9.78,1.36-17.6-5.16-22.13-13.14C1178.42,1972.76,1178.42,1967.7,1178.39,1962.69z"/>
<path d="M2416.32,2256.11c11.78-11.53,23.3-23.27,35.02-34.86c3.7,3.7,7.44,7.44,11.15,11.21c-4.05,3.86-8.01,7.82-12,11.78
	c23.84,24.76,47.59,49.58,72.16,73.65c-4.53,4.4-9.02,8.9-13.43,13.43c-35.3-10.26-70.48-21.06-105.75-31.54
	c18.9,18.46,36.73,37.87,55,56.93c3.89-4.05,7.85-8.04,11.84-12c4.05,4.02,8.04,8.07,12.06,12.16
	c-11.87,10.92-24.19,21.34-35.18,33.18c-3.64-3.77-7.28-7.5-10.86-11.21c3.61-3.74,7.22-7.44,10.89-11.11
	c-20.52-19.44-38.41-41.38-58.99-60.76c-4.24,3.96-8.61,7.79-13.52,10.86c-2.47-4.21-9.4-6.93-8.68-12.32
	c8.23-9.47,17.79-17.67,26.28-26.91c32.55,7.92,64.21,19.06,96.54,27.8c-17.16-16.4-32.45-34.54-49.43-51.14
	c-3.86,3.89-7.69,7.85-11.46,11.81C2424.04,2263.43,2420.18,2259.75,2416.32,2256.11z"/>
<path d="M1024.82,2241.87c3.99-3.99,8.01-7.95,12.06-11.91c22.73,22.73,45.21,45.63,67,69.28c-8.42,8.11-16.75,16.34-24.79,24.86
	c-3.89-3.67-7.76-7.38-11.62-11.02c4.84-4.75,9.66-9.47,14.5-14.18c-11.11-11.08-22.16-22.23-33.31-33.25
	c-7.69,7.57-15.36,15.23-22.92,22.99c9.72,9.85,19.54,19.6,29.32,29.38c-3.96,3.89-7.92,7.82-11.81,11.81
	c-10.07-10.1-20.17-20.17-30.24-30.24c-8.23,8.52-16.56,16.94-25.14,25.08c10.7,11.56,22.2,22.42,33.25,33.66
	c4.69-4.81,9.4-9.63,14.06-14.41c3.74,3.67,7.44,7.41,11.15,11.18c-8.68,8.77-17.38,17.48-26.15,26.12
	c-14.41-14.38-28.94-28.59-43.13-43.19c-7.38-9.02-15.39-17.51-24.03-25.33c3.61-3.86,7.25-7.73,10.92-11.53
	c3.51,3.42,7.06,6.84,10.67,10.23c19-20.99,41.1-38.72,60.6-59.18C1031.76,2248.74,1028.3,2245.28,1024.82,2241.87z"/>
<g>
	<path d="M1105.91,2299.33c16.94,14.31,35.27,27.2,50.15,43.82c4.18,4.56,4.75,11.02,6.59,16.72c-0.89,10.89-5.48,20.87-12.48,29.19
		c-8.39,6.21-18.11,12.22-29.1,10.32c-14.03-3.2-25.33-12.79-35.78-22.13c-6.08,7.31-12.22,14.66-18.11,22.16
		c3.93,3.01,7.82,6.08,11.78,9.15c-3.61,4.12-7.31,8.14-11.05,12.16c-12.54-9.56-23.91-20.58-36.98-29.45
		c3.26-4.69,7.03-8.99,10.96-13.08c3.55,2.94,7.16,5.95,10.8,8.9c17.92-22.2,36.16-44.11,54.43-66.02
		c-3.67-2.91-7.35-5.83-10.96-8.71C1099.39,2308.01,1102.65,2303.64,1105.91,2299.33z M1095.37,2364.97
		c8.55,7.63,17.83,15.96,29.73,17.45c8.39-3.36,14.94-10.8,18.36-19.06c3.29-14.69-12.86-21.66-21.66-29.95
		C1112.75,2343.73,1104.23,2354.52,1095.37,2364.97z"/>
</g>
<g>
	<path d="M2332.57,2331.44c37.43-14.53,80.2,19.82,79.35,58.51c2.12,34.83-32.61,65.1-66.56,60.89
		c-31.69-4.24-57.72-34.96-55.13-67.06C2291.72,2359.65,2310.47,2339.29,2332.57,2331.44z M2335.07,2349.17
		c-8.61,3.64-16.72,9.4-21.09,17.92c-15.1,27.2,9.5,63.36,38.88,65.7c24.22,1.71,45.85-24.06,38.85-47.62
		C2387.38,2360.22,2359.99,2340.02,2335.07,2349.17z"/>
</g>
<path d="M1172.15,2373.14c2.98-4.15,5.86-8.33,9.12-12.22c12.63,6.93,23.46,16.65,35.91,23.97c-3.1,4.65-6.3,9.28-9.72,13.77
	c-3.2-2.47-6.36-4.94-9.53-7.35c-16.05,23.62-33.82,46.13-48.67,70.48c3.1,2.18,6.17,4.4,9.28,6.68c-2.94,4.18-5.83,8.42-8.68,12.73
	c-12.6-7.57-24.32-16.43-36.19-24.98c3.1-4.18,6.08-8.49,8.99-12.79c3.61,2.37,7.25,4.72,10.89,7.12
	c15.04-23.78,32.68-45.88,47.81-69.56C1178.36,2378.27,1175.28,2375.64,1172.15,2373.14z"/>
<path d="M2243.34,2393.63c4.53-2.56,9.02-5.13,13.62-7.57c5.73,10.73,12.76,20.71,18.11,31.66c-4.4,2.66-8.83,5.29-13.3,7.85
	c-0.92-1.9-2.82-5.76-3.77-7.66c-9.18-3.55-20.58-4.5-28.62,2.15c-6.78,4.15-12.54,13.74-6.68,21.06c2.75,7,11.65,6.24,17.7,5.41
	c13.46-2.88,26.66-8.93,40.72-7.44c16.27,2.72,27.64,17.98,29.35,33.78c-0.35,9.97-4.65,19.38-10.92,27.07
	c-10.04,8.68-22.99,12-36.1,10.29c6.87,8.64-4.37,12.13-10.29,15.67c-6.97-12.82-14.88-25.05-22.16-37.68
	c4.31-2.72,8.68-5.29,13.08-7.85c7.19,14.88,28.28,20.87,41.04,9.4c12.19-8.71,6.46-30.9-8.83-31.38
	c-16.56,2.44-32.64,10.13-49.74,7.16c-19.98-5.32-29.32-32.42-17.19-49.05c7.92-12.41,22.92-16.69,36.82-17.54L2243.34,2393.63z"/>
<path d="M1191.72,2503.47c-24.7-37.46,7.54-97.36,53.1-94.67c23.37,0.06,43.6,16.05,55.13,35.49c1.11-1.87,3.36-5.54,4.5-7.38
	c4.53,2.79,9.15,5.45,13.84,8.07c-6.68,11.21-12.63,22.86-19.73,33.85c-4.65-2.75-9.28-5.51-13.84-8.3
	c3.26-22.26-15.04-41.23-36.13-44.61c-32.8,1.3-57.6,42.62-38.47,70.74c13.55,21.63,46.73,20.9,62.12,1.65
	c4.15,4.88,7.12,10.58,10.04,16.31C1257.32,2541.24,1210.49,2533.13,1191.72,2503.47z"/>
<path d="M2147.66,2445.81c13.17-5.95,25.55-13.52,39.1-18.62c2.28,4.72,4.56,9.47,6.87,14.18c-3.61,1.68-7.22,3.39-10.8,5.13
	c12.67,25.65,25.71,51.14,38.25,76.85c3.77-1.99,7.57-3.96,11.37-5.89c2.47,4.84,4.91,9.72,7.38,14.63
	c-13.17,6.59-26.31,13.17-39.52,19.73c-2.28-5.03-4.46-10.07-6.33-15.23c3.58-1.71,7.22-3.36,10.86-5
	c-13.11-25.43-26.66-50.63-39.07-76.4c-3.67,1.68-7.38,3.39-11.02,5.1C2152.37,2455.43,2150,2450.59,2147.66,2445.81z"/>
<path d="M1326.89,2447.64c29.67,13.33,59.84,25.62,89.92,38.03c-6.08,10.8-9.59,22.77-15.36,33.69c-4.62-2.06-9.25-4.05-13.9-5.95
	c2.41-6.4,4.97-12.73,7.6-19c-14.47-6.36-29.19-12.13-43.6-18.59c-3.58,10.54-8.23,20.71-12.86,30.84
	c13.43,4.94,26.41,11.02,39.67,16.4c-2.18,4.88-4.4,9.78-6.46,14.79c-13.08-5.57-26.34-10.77-39.23-16.78
	c-4.34,11.49-9.12,22.86-14.12,34.1c14.69,5.67,29.1,12.1,43.6,18.27c2.63-6.49,5.45-12.89,8.01-19.35c5,1.87,9.97,3.96,14.91,6.17
	c-5.19,11.27-9.78,22.83-14.41,34.39c-29.73-12.92-59.62-25.43-89.54-37.77c2.09-4.97,4.12-9.94,6.05-14.91
	c4.69,1.84,9.31,3.7,13.93,5.79c11.34-26.22,22.07-52.66,33.25-78.9c-3.99-1.87-8.04-3.48-11.91-5.51
	C1320.78,2457.87,1325.68,2452.8,1326.89,2447.64z"/>
<g>
	<path d="M2065.62,2481.11c18.33-7.69,36.76-15.17,55.38-22.13c2.12,4.27,4.27,8.55,6.46,12.86c-4.56,1.9-9.09,3.8-13.58,5.7
		c20.77,22.89,41.35,45.94,61.77,69.18c4.12-1.74,8.3-3.45,12.44-5.19c1.87,5.22,3.74,10.42,5.64,15.67
		c-14.47,5.19-28.56,11.4-42.97,16.78c-1.99-4.81-4.05-9.63-6.11-14.34c4.27-2.03,8.58-3.99,12.92-5.92
		c-5.73-6.59-11.24-13.33-16.46-20.26c-12.63,5.38-25.43,10.42-38.25,15.36c1.93,8.58,2.03,17.38,1.71,26.19
		c4.5-1.74,8.99-3.45,13.52-5.1c1.96,4.78,3.93,9.53,5.95,14.34c-14.06,6.71-28.72,12.03-43.19,17.67
		c-2.06-4.94-4.18-9.78-6.3-14.63c4.18-1.71,8.42-3.39,12.67-4.97c-0.35-12,1.11-24.16-1.27-35.97c0.38-19.12-2.18-38.12-1.9-57.18
		c-4.31,1.77-8.61,3.61-12.92,5.38C2069.26,2490.07,2067.39,2485.58,2065.62,2481.11z M2098.8,2481.62
		c1.27,16.81,2.66,33.63,3.04,50.5c9.69-2.69,18.9-6.84,28.28-10.45C2120.84,2507.39,2108.27,2495.71,2098.8,2481.62z"/>
</g>
<g>
	<path d="M1417.19,2487.16c20.39,5.51,40.85,11.08,60.63,18.52c11.18,3.8,20.07,14.5,19.03,26.79c1.65,17.73-13.9,34.35-32.04,32.04
		c2.37,14.91,4.72,29.86,6.81,44.83c4.59,1.42,9.21,2.85,13.84,4.24c-1.33,5.03-2.69,10.04-3.86,15.17
		c-8.8-1.87-17.51-4.27-25.84-7.63c-2.28-19.76-6.68-39.23-8.58-59.02c-5.03-1.46-10.04-2.88-14.98-4.46
		c-2.98,12.57-7.31,24.76-10.45,37.27c4.69,1.17,9.31,2.47,14,3.77c-1.68,5.22-3.51,10.42-5.45,15.58
		c-15.32-5.41-31.22-9.02-46.45-14.63c1.58-5.07,3.01-10.2,4.37-15.29c5.13,1.58,10.32,3.23,15.51,4.81
		c7.28-27.86,16.94-55.06,24.06-82.96c-4.72-1.01-9.44-1.99-14.12-2.94C1414.63,2497.8,1415.86,2492.45,1417.19,2487.16z
		 M1445.94,2512.24c-2.75,10.23-6.52,20.23-8.26,30.74c10.32,2.85,20.64,6.05,31.5,5.57c7.41-6.21,12.73-18.59,4.31-26.22
		C1465.35,2516.73,1455.22,2515.18,1445.94,2512.24z"/>
</g>
<path d="M2018.41,2496.12c4.5-1.39,9.02-2.85,13.49-4.37c4.53,11.75,7.76,23.97,10.73,36.19c-4.65,1.17-9.28,2.34-13.9,3.51
	c-5.64-21.69-40.72-19.09-45.28,2.12c3.2,5.38,6.46,11.62,13.33,12.82c15.77,1.49,32.39-2.47,47.46,3.93
	c16.43,8.96,24.41,32.2,14.57,48.73c-9.09,18.3-33.31,22.67-51.17,16.02c3.17,9.66-7.12,9.37-13.24,11.62
	c-4.21-13.3-8.33-26.66-11.65-40.21c2.66-4.27,8.87-3.86,13.01-5.95c4.46,16.84,27.07,29.13,41.64,16.78
	c9.78-6.36,9.53-22.16-0.19-28.31c-5.7-2.47-12.13-1.8-18.11-2.6c-4.4,0.67-8.74,0.57-13.05-0.25c-8.55-0.82-18.49,0.41-25.14-6.17
	c-15.64-11.59-17-37.77-1.84-50.31c11.18-9.47,26.72-10.39,40.53-7.38C2019.29,2500.74,2018.69,2497.67,2018.41,2496.12z"/>
<path d="M1514.65,2513.82c14.12,3.2,28.37,5.79,42.4,9.47c-0.57,3.58-1.77,10.77-2.34,14.34c-4.5-0.28-8.93-0.92-13.33-1.61
	c-4.75,28.53-12.6,56.46-17.19,85.05c2.72,0,8.17,0,10.89,0c-0.54,5.89-1.3,11.72-2.03,17.67c-14.19-4.21-28.91-6.14-43.16-10.16
	c1.17-5,2.28-10.04,3.36-15.01c4.12,0.89,8.23,1.68,12.41,2.66c5.35-27.9,11.97-55.57,17.48-83.43c-3.96-1.36-7.88-2.6-11.81-3.93
	C1512.4,2523.82,1513.51,2518.82,1514.65,2513.82z"/>
<path d="M1561.98,2525.82c21.31,3.51,42.81,5.76,64.24,8.61c10.61,1.74,21.34,2.85,31.98,4.5c-2.44,11.87-3.8,23.97-4.91,36.06
	c-5.26-1.04-10.61-1.49-15.93-1.8c1.17-7.09,2.03-14.25,1.3-21.4c-15.32-1.01-30.4-3.8-45.63-5.57
	c-1.61,11.08-2.72,22.26-4.53,33.34c14.12,1.2,28.12,3.7,42.27,5.19c-0.63,5.32-1.08,10.67-1.42,16.05
	c-14.12-1.84-28.21-4.05-42.37-5.51c-2.53,12.1-3.61,24.38-5.16,36.63c2.41,0.13,7.19,0.41,9.59,0.54c12.54,2.28,25.2,3.8,37.9,4.75
	c0.32-7.03,1.2-14,2.06-20.93c5.16,1.08,10.39,1.77,15.64,2.5c-1.65,12.25-3.01,24.57-4.78,36.82c-12.54-1.61-25.05-3.61-37.62-4.91
	c-12.79-2.22-25.77-3.2-38.6-5.45c-6.55-0.67-13.05-1.55-19.57-2.31c0.63-5.41,1.2-10.77,1.87-16.12c4.78,0.76,9.59,1.61,14.38,2.53
	c4.12-25.27,7.16-50.69,10.42-76.05c0.51-3.13,1.01-6.24,1.52-9.31c-5.03-0.82-10.04-1.68-15.04-2.5
	C1560.37,2536.24,1561.22,2531.01,1561.98,2525.82z"/>
<path d="M1832.01,2536.9c27.86-4.46,55.82-8.49,83.84-11.72c0.76,11.75,3.23,23.3,3.86,35.08c-2.18,0.54-6.55,1.58-8.74,2.12
	c-1.49,0.03-4.5,0.06-5.98,0.06c-1.08-6.52-2.06-13.01-3.39-19.44c-15.26,1.52-30.33,4.4-45.56,6.02
	c0.25,11.05,2.34,21.91,3.77,32.87c14.03-1.36,27.9-3.99,41.89-5.57c0.79,5.22,1.61,10.48,2.28,15.8
	c-11.37,1.36-22.7,2.85-33.94,4.88c-1.99,0.13-5.98,0.35-7.95,0.48c2.53,11.97,1.93,24.67,5.92,36.29
	c15.23-1.71,30.43-3.58,45.5-6.43c-0.7-6.78-1.61-13.52-2.47-20.23c5.22-1.14,10.54-1.84,15.93-2.25
	c0.92,12.29,2.98,24.41,4.81,36.6c-32.01,3.86-63.9,8.61-95.81,13.17c-0.51-5.32-1.17-10.58-2.03-15.8
	c4.91-0.79,9.78-1.61,14.72-2.44c-4.05-28.21-7.92-56.46-11.75-84.7c-5.16,0.85-10.35,1.27-15.55,1.65
	c-0.19-5.38-0.38-10.77-0.54-16.12C1824.53,2537.09,1828.27,2537,1832.01,2536.9z"/>
<g>
	<path d="M1699.34,2540.32c26.6,1.96,53.51-4.72,79.7,1.87c26.79,7.28,38.6,38.44,34.92,63.8c-1.87,18.21-10.07,38.85-29,44.93
		c-26.47,9.09-55,5.95-82.45,6.55c-0.03-5.32-0.03-10.61,0-15.86c5.1,0,10.16,0,15.29,0.13c-2.5-28.47,0.47-57.15-2.88-85.59
		c-5.19,0-10.42-0.06-15.61,0C1699.31,2550.83,1699.31,2545.55,1699.34,2540.32z M1734.11,2556.41c-0.28,28.5,2.72,56.87,1.71,85.4
		c16.81-0.98,36.89,0.35,49.68-12.63c16.21-20.9,13.65-59.56-12.67-71.08C1760.26,2555.27,1746.8,2552.76,1734.11,2556.41z"/>
</g>
<polygon points="653.97,1433.69 675.05,1498.57 743.27,1498.57 688.08,1538.67 709.16,1603.55 653.97,1563.45 598.78,1603.55 
	619.86,1538.67 564.67,1498.57 632.89,1498.57 "/>
<polygon points="2842.37,1433.69 2863.45,1498.57 2931.67,1498.57 2876.48,1538.67 2897.56,1603.55 2842.37,1563.45 
	2787.18,1603.55 2808.26,1538.67 2753.07,1498.57 2821.29,1498.57 "/>
</svg>
