<svg id="e80c7ffe-33a2-4fa5-a016-e01c72e202a3" data-name="Layer 1" xmlns="http://www.w3.org/2000/svg" viewBox="0 0 500 500"><path d="M246.39,270a34.47,34.47,0,0,0-33.72,27.53h67.44A34.47,34.47,0,0,0,246.39,270Z"/><path d="M78.57,215l13.36-57.11h14.7L93.27,215h26.59l13.37-57.11h14.7L134.56,215h26l8.2-57.11h14.19L174.74,215h26.4l3-57.11h13.87L215,215h26.62l-2.12-57.11h13.76L255.39,215H282l-7.28-57.11H288.6L295.88,215h26.4l-12.44-57.11H324L336.47,215h26l-17.61-57.11h14.7L377.16,215h26.59l-17.6-57.11h14.7L418.45,215h26.6l-17.61-57.11h4.77V139.28a6.91,6.91,0,0,0-6.91-6.91H67.48a6.91,6.91,0,0,0-6.91,6.91v18.57h4.77L52,215Z"/><polygon points="253.27 311.31 211.98 311.31 211.98 435.19 280.8 435.19 280.8 311.31 253.27 311.31"/><path d="M425.32,241.6a27.54,27.54,0,0,1-13.76-8.46,27.47,27.47,0,0,1-38.77,2.52,30,30,0,0,1-2.52-2.52,27.47,27.47,0,0,1-38.77,2.52,28.54,28.54,0,0,1-2.52-2.52,27.47,27.47,0,0,1-41.29,0,27.47,27.47,0,0,1-38.77,2.52,28.65,28.65,0,0,1-2.53-2.52,27.47,27.47,0,0,1-38.77,2.52,28.54,28.54,0,0,1-2.52-2.52,27.47,27.47,0,0,1-38.77,2.52,28.54,28.54,0,0,1-2.52-2.52A27.47,27.47,0,0,1,125,235.66a28.65,28.65,0,0,1-2.53-2.52,27.47,27.47,0,0,1-38.77,2.52,30,30,0,0,1-2.52-2.52,27.56,27.56,0,0,1-13.75,8.46H57.7V427.84a7.35,7.35,0,0,0,7.35,7.35H198.22v-130c0-26.42,20.93-48.52,47.35-49a48.17,48.17,0,0,1,49,48.17V435.19H426a7.62,7.62,0,0,0,7.62-7.61v-186ZM165.75,380H80.51v-67.8h85.24Zm0-79.15H79.84v-16h85.91ZM407.33,380H322.1v-67.8h85.23Zm.34-79.15H321.76v-16h85.91Z"/><path d="M418.59,215a13.24,13.24,0,1,0,26.46,0Z"/><path d="M390.48,228.72A13.51,13.51,0,0,0,403.71,215H377.25A13.51,13.51,0,0,0,390.48,228.72Z"/><path d="M329,120.82c0-41.74-37.05-75.71-82.59-75.71s-82.58,34-82.58,75.71a6.85,6.85,0,0,1-1.57,4.37h168.3A6.84,6.84,0,0,1,329,120.82Zm-82.59-13.45c-25.85,0-46.77.78-46.77-12,0-8.29,8.88-16.78,22.1-21.51a25.73,25.73,0,0,0-1,9.67,3.47,3.47,0,0,0,3.55,3.16h.2a3.39,3.39,0,0,0,3.16-3.75c-.4-4.74.58-8.68,3.15-11.64a85.27,85.27,0,0,1,12.63-1.59,23.43,23.43,0,0,0-2.76,13.82,3.45,3.45,0,0,0,3.55,3.16h.4a3.39,3.39,0,0,0,3.16-3.75c-.4-4.74.78-8.88,3.35-11.84l1.18-1.19a60.94,60.94,0,0,1,10.46,1.58,23.94,23.94,0,0,0-1.77,12c0,3.81,7.47,3.92,6.91-.59a14.69,14.69,0,0,1,1.77-9.48c14,4.74,23.48,13.42,23.48,22.1C293.16,108.15,272.24,107.37,246.39,107.37Z"/><path d="M349.45,228.72c7.18,0,13-6.16,13-13.76h-26C336.46,222.56,342.27,228.72,349.45,228.72Z"/><path d="M309.1,228.72c7.27,0,13.16-6.16,13.17-13.76H295.94C296,222.56,301.84,228.72,309.1,228.72Z"/><path d="M147.55,228.72c7.15,0,12.95-6.16,13-13.76H134.59C134.6,222.56,140.39,228.72,147.55,228.72Z"/><path d="M188,228.72c7.28,0,13.18-6.16,13.19-13.76H174.76C174.76,222.56,180.67,228.72,188,228.72Z"/><path d="M228.37,228.72A13.54,13.54,0,0,0,241.66,215H215.07A13.55,13.55,0,0,0,228.37,228.72Z"/><path d="M268.75,228.72A13.54,13.54,0,0,0,282,215H255.45A13.55,13.55,0,0,0,268.75,228.72Z"/><path d="M106.59,228.72A13.56,13.56,0,0,0,119.92,215H93.25A13.56,13.56,0,0,0,106.59,228.72Z"/><path d="M78.53,215H52a13.28,13.28,0,1,0,26.55,0Z"/></svg>