<svg id="afb610ce-a8d9-4557-a0f3-51a20ffda416" data-name="Layer 1" xmlns="http://www.w3.org/2000/svg" viewBox="0 0 500 500"><path d="M385.31,169.24c-4.53-26.42-16.14-49.19-35.83-67.61a115.91,115.91,0,0,0-59.24-30,119,119,0,0,0-58.54,3.91,114,114,0,0,0-40,22.69,116.94,116.94,0,0,0-34.5,51c-6.78,19.4-8.05,39.2-4.65,59.37C156.25,230.69,156.18,231,254,398.77a16.92,16.92,0,0,0,29.29-.09c16.32-28.46,45-78.94,84.53-146.33,9.8-16.71,16.86-34.27,18.35-53.83C386.91,188.7,387,178.91,385.31,169.24ZM268.8,273.54c-45.14.24-81.75-36.74-81.8-81.39a81.72,81.72,0,0,1,82.13-81.94c44.67.19,81.39,36.84,81.36,81.48A81.79,81.79,0,0,1,268.8,273.54Z" fill="#fff"/><path d="M422.11,430c0,22.74-67,41.16-149.71,41.16S122.7,452.74,122.7,430c0-11.9,18.38-22.62,47.77-30.14a2.51,2.51,0,0,1,2.84,3.63,8.39,8.39,0,0,0-1.17,4.17c0,14.88,43.85,26.93,97.94,26.93s97.94-12,97.94-26.93a8.92,8.92,0,0,0-1.82-5.19,2.52,2.52,0,0,1,2.59-4C401.4,406.05,422.11,417.36,422.11,430Z" fill="#fff"/><path d="M312.22,222.07a37.1,37.1,0,0,1-16.13,11.61q-10,3.87-23.92,3.87a66.77,66.77,0,0,1-25.64-4.62,36.14,36.14,0,0,1-17.41-14.7,41.83,41.83,0,0,1-6.2-22.35,56,56,0,0,1,5.56-24.31A40.9,40.9,0,0,1,245,153.47Q256,147,271.76,147q18.57,0,28.93,9.63c.43.4.85.81,1.25,1.22a31.25,31.25,0,0,1,9.12,22.73,34.62,34.62,0,0,1-3.67,15.43,32.27,32.27,0,0,1-9.61,11.88c-2.95,2.25-5.35,3.37-7.22,3.37a2.09,2.09,0,0,1-1.6-.73,3.14,3.14,0,0,1-.67-2.18,34.84,34.84,0,0,1,.82-5.12l8.79-41.74H282.53L281.08,168q-4.95-7.91-15.31-7.91-14.55,0-23.87,13.73a43.47,43.47,0,0,0-7.68,25q0,11.06,6.37,17.72a21.25,21.25,0,0,0,16,6.67,22.15,22.15,0,0,0,15.83-6.64,8.17,8.17,0,0,0,3.26,5c1.63,1.12,4.06,1.69,7.28,1.69q17.92,0,29.39-15.14a43.13,43.13,0,0,0,9.14-26.83,45.35,45.35,0,0,0-6-23A40.36,40.36,0,0,0,298.07,142a57.55,57.55,0,0,0-26.07-5.7q-17.29,0-30.74,7.07a50.86,50.86,0,0,0-21.19,21.19,62.38,62.38,0,0,0-7.74,30.47,57.24,57.24,0,0,0,6.81,27.56,43.73,43.73,0,0,0,20.78,19.16q14,6.48,33.18,6.49,19.84,0,33.65-7.69a42.16,42.16,0,0,0,17.87-18.51Zm-36.59-25.2a30.29,30.29,0,0,1-5.32,10.36,15.19,15.19,0,0,1-4.37,3.66,12.52,12.52,0,0,1-6.23,1.63,9.39,9.39,0,0,1-7.42-3.49q-3-3.5-3-10.88a44.58,44.58,0,0,1,2.16-12.69,23.82,23.82,0,0,1,6.4-11,13.49,13.49,0,0,1,9.26-3.87,9.78,9.78,0,0,1,7.71,3.53q3.06,3.51,3.05,10.1A40.62,40.62,0,0,1,275.63,196.87Z" fill="#fff"/></svg>