<svg id="b6881fc5-1bf3-4d21-b84e-4fd624e51a92" data-name="Layer 1" xmlns="http://www.w3.org/2000/svg" viewBox="0 0 500 500"><path d="M249.86,86.87c2.19,0,6.15,2.52,10.07,8.17,6.28,9.06,12.64,18.38,18.78,27.4,4.79,7,9.73,14.26,14.65,21.4,15.05,21.84,35.51,36.62,60.82,43.91,17.6,5.08,37.55,10.83,57,16.86,5.13,1.59,9,4.2,9.76,6.66.61,1.88-.08,5.95-4,11.24-6.9,9.24-14.23,18.62-21.31,27.69-5.36,6.86-10.91,14-16.34,21.08A107.64,107.64,0,0,0,357,338.75c.15,9.92.49,19.85.81,29.45.42,12.3.81,23.92.85,35.64,0,7.78-3.28,8.47-5.72,8.94a5.49,5.49,0,0,1-.7,0c-1.13,0-4.38-.19-10.14-1.95-15.29-4.66-30.33-10.25-46.25-16.16l-7.65-2.84A108.6,108.6,0,0,0,250.43,385c-14.39,0-28.76,2.76-43.92,8.44l-5.94,2.23c-17.1,6.43-33.25,12.51-49.57,17a11.87,11.87,0,0,1-3,.44c-6,0-6.68-6.67-6.75-8.72-.26-7.61-.19-15.36-.12-23.56,0-2.37,0-4.79.06-7.23a33.49,33.49,0,0,0,.28-4.39c0-4.11.15-8.4.31-12.94.4-11.75.85-25.07-1.3-38.81-2.26-14.48-8.56-29.25-19.24-45.14-8-11.93-16.73-22.85-25.16-33.42-4-5-7.8-9.77-11.5-14.6-5-6.58-6.06-11.51-5.51-13.22.47-1.44,3.57-4.84,12-7.38,20.3-6.15,38.15-11.41,54.56-16.09a107.86,107.86,0,0,0,61-43.9c4.06-5.94,8.14-11.95,12.08-17.78,6.92-10.2,14.07-20.75,21.17-30.95,3.9-5.62,7.85-8.13,10-8.13M141.16,369.23h0M249.86,53.87c-13.39,0-26.77,7.42-37.11,22.28-11.28,16.22-22.26,32.65-33.4,49a75.29,75.29,0,0,1-42.84,30.78q-27.61,7.88-55.08,16.24c-36.3,11-46.22,42.07-23.08,72.26C70.18,259.84,83,274.63,93.81,290.75c6.42,9.54,12.29,20.71,14,31.83,2.38,15.21.59,31.07.59,46.65h-.27c0,12.1-.34,24.2.07,36.28.79,23.68,18,40.62,39.73,40.62a44.39,44.39,0,0,0,11.76-1.62c19.81-5.42,39.09-12.9,58.37-20.12A91.82,91.82,0,0,1,250.43,418a75.22,75.22,0,0,1,26.31,4.77c18.48,6.83,36.9,13.88,55.72,19.62a69.65,69.65,0,0,0,19.77,3.38,36.69,36.69,0,0,0,6.93-.62c20.45-4,32.57-20.16,32.49-41.48-.08-21.82-1.33-43.64-1.66-65.46a73.84,73.84,0,0,1,15.48-47c12.51-16.41,25.48-32.49,37.83-49,20.77-27.79,10.67-58.92-22.38-69.18-19.12-5.94-38.36-11.5-57.6-17a76.16,76.16,0,0,1-42.78-30.93C309.33,108.85,298.3,92.46,287,76.23c-10.34-14.9-23.76-22.36-37.18-22.36Z" fill="#fff"/><path d="M344.3,246.38c-.12,1.49-2.06,3.18-3.56,4.2q-53.94,36.39-108,72.57c-1.56,1.05-4.06,1.91-5.72,1.43-21.24-6.1-41.92-13.55-60.53-25.88-3.42-2.26-5.1-4.81-5.2-9-.26-9.76-1-19.52-1.61-30.78,19.43,17.46,41.29,27.23,64.74,34,4.24,1.23,7.25.57,10.75-1.9q53.19-37.5,106.58-74.7c1.08-.76,2.25-1.37,4.34-2.63C345.5,225.16,345.11,235.78,344.3,246.38Zm4-45.45a5.63,5.63,0,0,0-6.62-5.55C310,201,174.53,225.7,164,227.32c-5.59.85-6.29,3.22-6.26,8,.2,23.48.5,47-.1,70.45-.21,8.44,2.83,14.13,9,19,16.9,13.29,36.73,20.32,56.78,27,3.71,1.24,6.35,1,9.57-1.47,37.33-28.1,74.8-56,112.15-84.07,1.49-1.13,3-3.35,3.05-5.07C348.38,241.05,348.34,221,348.33,200.93ZM233.1,262.38c-2.08,1.27-4.68,2.74-6.89,2.52-22.7-2.17-41.23-13-58.5-28.6,9.83-2.57,111.18-21.59,158.64-30.89Z" fill="#fff"/><path d="M268,203c-3.4-7.57-15.34-11.85-21.21-2.43a6.33,6.33,0,0,1-.62.75,9.75,9.75,0,0,1-5.7,3.47c-1.38.22-2.83.45-4.14-.7a11.06,11.06,0,0,1,2.65-.8c2.6-.41,4.8-1.42,5.77-4.08a30.4,30.4,0,0,0,1.33-4.65c1.75-9.09,3.89-18,11-24.67a2.16,2.16,0,0,0,.1-2c-1.15-2.09-2.63-2.12-4.12-.2a42.55,42.55,0,0,0-8.61,21c-.36,2.63-.68,5.25-1,7.87-.17,1.21-.53,2.09-2.16,1.89a14.9,14.9,0,0,0-4.52.11,15.24,15.24,0,0,0-12.32,11.85,16.56,16.56,0,0,0-.29,5.14l.09.65c.22,1.63.56,3.23.93,4.87,1.24,3.44,4.12,8.28,10.76,13l.18.13h0C241.89,237,248,237,254.2,235,269.06,230.25,273,214.2,268,203Zm-3.17,5.85a4.17,4.17,0,0,1-4.21,2.86c-2.26-.21-3.87-1.74-4.93-3.95s-1.18-4.26.24-6.27c1.09-1.53,3.4-1.87,5.44-.89A7.3,7.3,0,0,1,264.78,208.86Z" fill="#fff"/></svg>