<svg id="f32b03c1-495d-43b9-a042-3ee6337abca8" data-name="Layer 1" xmlns="http://www.w3.org/2000/svg" viewBox="0 0 500 500"><path d="M384.38,394l-3.44-148.84c-13.14,3.3-24.13.36-32.43-10.34a27.73,27.73,0,0,1-1.77-31.2c7.57-12.26,18.68-16.52,32.88-13.38l-1.08-45.93c-4.58,1.41-8.89,1-13.25-.05-1.63-.4-3.26-.79-4.89-1.15l0,0a1.22,1.22,0,0,1-.26-.06l-.31-.06c-8-1.61-16-3.07-24.18-3.9a206.61,206.61,0,0,0-79.19,7q-62.67,18.18-104.68,68.2A203.86,203.86,0,0,0,116.5,275q-3,8.1-5.39,16.54l-.19.67c-1.47,5.3-2.79,10.57-7.22,14.6l39.9,23.16c4-13.68,12.8-21.69,27-22.33,11.84-.54,21,4.86,26.39,15.45,6.37,12.6,3.84,24.15-5.85,34.33.44.3.82.59,1.24.83l172.6,100c4.76,2.76,9.72,2.86,14.42-.2a13,13,0,0,0,6.16-12C385.12,428.72,384.78,411.37,384.38,394ZM146,287.88a13,13,0,0,1-2,2.08c-4.1,3-5.25,7.13-3.19,11.76a11,11,0,0,1,.65,1.73,4.16,4.16,0,0,1-2.33,4.77,4.12,4.12,0,0,1-5.09-1.49c-5.2-7.48-2-20.12,6.14-24.09a4,4,0,0,1,4.55.44C146.05,284.15,146.52,285.59,146,287.88Zm37.88-19.42c-17.44-2.92-27.1-18.47-21.44-34,1.68-4.64,4.07-5.57,8.49-4.08C186.55,235.62,193,254.35,183.86,268.46Zm173.47,31.75a4,4,0,0,1-1.87,4.31c-2.79,1.82-4.53,4.3-4.47,7.67a13.14,13.14,0,0,0,1.11,4.61c1.11,2.71.6,4.93-1.68,6s-4.36.21-5.71-2.23a17.35,17.35,0,0,1,6.06-22.83,11.47,11.47,0,0,1,2.87-.91C355.94,297.49,357,298.54,357.33,300.21ZM328.07,177.44a17.18,17.18,0,0,1,7.3-10.2c2.35-1.58,4.87-1.2,6.21.86s.73,4.35-1.51,5.93c-4.28,3-5.43,7.58-3.09,12.25,1.19,2.36.52,4.8-1.62,5.9s-4.32.36-5.66-2A17.38,17.38,0,0,1,328.07,177.44Zm-.64,73.45c1.68-4.62,4.05-5.54,8.45-4.06,15.57,5.22,22,23.87,12.9,37.9C331.42,281.83,321.81,266.36,327.43,250.89Zm-35.62-91.08c3.28-3.66,5.82-3.63,9.36-.62,12.5,10.63,11.51,30.33-2.15,40C284,190,280.83,172.07,291.81,159.81Zm-11.2,77.87c1.29-4.44,3.72-8.06,7.87-10.29a4.32,4.32,0,0,1,5.75,1.3c1.15,1.81.43,4.38-1.63,5.83-4.34,3-5.5,7.49-3.22,12.24,1.21,2.5.64,4.79-1.48,5.94s-4.49.38-5.85-2.2A17,17,0,0,1,280.61,237.68Zm-75.32-33.1a28.62,28.62,0,1,1,20.74,35A28.75,28.75,0,0,1,205.29,204.58Zm28.15,74c1.19,2.55.62,4.78-1.53,5.94s-4.43.31-5.76-2.11a17.1,17.1,0,0,1-1.6-12.61,17.28,17.28,0,0,1,7.46-10.3c2.31-1.5,4.74-1.11,6,.9s.83,4.28-1.45,5.94C232.25,269.47,231.15,273.69,233.44,278.56Zm-20.55,43.22c-1.61-4.15-.54-6.19,3.34-7.82,13.73-5.74,29.24,3.15,31.44,18.15C234.1,340.49,218.3,335.69,212.89,321.78Zm44.32,33.14c-4.87,3.66-5.76,7.23-3.23,12.93a4.11,4.11,0,0,1-7.17,4c-2.31-3.39-3.1-8.73-1.85-13.68a17,17,0,0,1,7.65-10,4.11,4.11,0,0,1,5.74,1.07A4.05,4.05,0,0,1,257.21,354.92Zm22.48-24.25c-15.52-4.1-24.49-19.79-20.31-35.53,4-15,19.87-24,35.17-19.88a28.68,28.68,0,0,1-14.86,55.41Zm27.3,19a9.29,9.29,0,0,0-3.35,12.49c1.22,2.34.61,4.61-1.49,5.78s-4.38.43-5.7-1.8c-4.66-7.82-1.89-18.75,6-23.28a10.81,10.81,0,0,1,2.73-.84c2.27.62,3.31,1.69,3.68,3.34A3.8,3.8,0,0,1,307,349.66Zm61.57,51.64a28.61,28.61,0,1,1-20.68-35A28.66,28.66,0,0,1,368.56,401.3Zm-32.1-47.94c-3.38-2.89-3.41-5.2-.76-8.47,9.38-11.55,27.24-11.07,36.28,1.1C364,359.8,347.81,363.05,336.46,353.36Z" fill="#fff"/><path d="M381.35,90.28c-10-2.36-20.17-4.48-30.36-6a246.51,246.51,0,0,0-56-1.63,266.25,266.25,0,0,0-177,87.48,275.1,275.1,0,0,0-20.89,26.3,265.85,265.85,0,0,0-36.6,77c-.73,2.83-1.51,5.65-2.17,8.5A22.18,22.18,0,0,0,73.43,307.8c12.26,3.65,24.39-3.12,28-15.63,0-.19.11-.39.16-.59q2.27-8.68,5.18-17.13c0-.05,0-.11,0-.16,1.64-4.38,3.21-8.8,5-13.12a215.72,215.72,0,0,1,40.07-62.62q44.45-48.41,108-65.24a216,216,0,0,1,103.1-2c1.87.41,3.73.91,5.6,1.34l.3.07.33.07a42.51,42.51,0,0,0,4.44.77c11.74,1.31,22.28-6.7,24.23-19A21.83,21.83,0,0,0,381.35,90.28Z" fill="#fff"/><path d="M379.82,199.19l.88,37a20.48,20.48,0,0,1-25.52-30.57C360.7,198.15,370,195.68,379.82,199.19Z" fill="#fff"/><path d="M183.43,353c-4.36-2.53-25-14.54-31-17.94a1.55,1.55,0,0,1-.93-2c2.16-10.81,10.14-17.49,20.74-17.27a20.38,20.38,0,0,1,18.48,13.31,20.07,20.07,0,0,1-5.29,22.1Z" fill="#fff"/><path d="M306.62,308.07a20.35,20.35,0,1,1-14.49-24.9A20.28,20.28,0,0,1,306.62,308.07Z" fill="#fff"/><path d="M360.59,399.07a20.33,20.33,0,1,1-14.53-24.72A20.25,20.25,0,0,1,360.59,399.07Z" fill="#fff"/><path d="M252.69,216.88A20.35,20.35,0,1,1,238.12,192,20.28,20.28,0,0,1,252.69,216.88Z" fill="#fff"/></svg>